<?xml version="1.0" encoding="UTF-8"?>
<svg width="50px" height="48px" viewBox="0 0 50 48" version="1.1" xmlns="http://www.w3.org/2000/svg" xmlns:xlink="http://www.w3.org/1999/xlink">
    <!-- Generator: Sketch 52.5 (67469) - http://www.bohemiancoding.com/sketch -->
    <title>material_approval</title>
    <desc>Created with Sketch.</desc>
    <g id="Templates" stroke="none" stroke-width="1" fill="none" fill-rule="evenodd">
        <g id="Homepage-1" transform="translate(-935.000000, -1310.000000)" fill="#5558DB">
            <g id="Features/1/White" transform="translate(0.000000, 1160.000000)">
                <g id="feature-2" transform="translate(735.000000, 150.000000)">
                    <path d="M249.306099,22.2722745 L247.193629,20.0789476 C245.65707,18.4831463 244.937779,16.2634227 245.248436,14.0652964 L245.673798,11.0440726 C245.860192,9.71943759 244.966455,8.48599118 243.654525,8.25322016 L240.662656,7.7252859 C238.485665,7.34133371 236.604993,5.97110433 235.567875,4.00814876 L234.143631,1.31328432 C233.519927,0.137430743 232.074175,-0.335310391 230.879339,0.2526164 L228.150334,1.59164966 C226.164517,2.56592834 223.839366,2.56592834 221.853549,1.59164966 L219.122154,0.2526164 C217.927318,-0.335310391 216.481567,0.137430743 215.857862,1.31808373 L214.433618,4.01294816 C213.3965,5.97590373 211.518218,7.34613311 209.338837,7.7300853 L206.346968,8.25801956 C205.035039,8.48839088 204.141301,9.72183729 204.327696,11.0464723 L204.753057,14.0676961 C205.063715,16.2658224 204.344423,18.485546 202.807864,20.0813473 L200.695395,22.2746742 C199.768202,23.2369544 199.768202,24.7607646 200.695395,25.7230448 L202.807864,27.9163717 C204.344423,29.512173 205.063715,31.7318966 204.753057,33.9300229 L204.327696,36.9512467 C204.141301,38.2758817 205.035039,39.5093281 206.346968,39.7420991 L209.338837,40.2700334 C211.515829,40.6539856 213.3965,42.024215 214.433618,43.9871705 L215.857862,46.682035 C216.481567,47.862688 217.927318,48.3354291 219.124544,47.7475023 L221.853549,46.408469 C223.839366,45.4341904 226.164517,45.4341904 228.150334,46.408469 L230.879339,47.7475023 C232.076565,48.3354291 233.519927,47.862688 234.146021,46.682035 L235.570265,43.9871705 C236.607383,42.0266147 238.485665,40.6539856 240.665045,40.2700334 L243.656915,39.7420991 C244.968844,39.5117278 245.862582,38.2758817 245.676187,36.9512467 L245.250826,33.9300229 C244.940168,31.7318966 245.65946,29.512173 247.196019,27.9163717 L249.308488,25.7230448 C250.230902,24.7607646 250.230902,23.2345547 249.306099,22.2722745 Z M220.921577,32.893352 L215.442059,27.3908371 C214.510087,26.4549537 214.510087,24.9335431 215.442059,23.9976597 C216.374031,23.0617762 217.889083,23.0617762 218.821055,23.9976597 L222.611075,27.8035857 L233.57011,16.7985561 C234.502082,15.8626726 236.017134,15.8626726 236.949106,16.7985561 C237.881078,17.7344396 237.881078,19.2558501 236.949106,20.1917336 L224.300573,32.893352 C223.368601,33.8292354 221.853549,33.8292354 220.921577,32.893352 Z" id="material_approval"></path>
                </g>
            </g>
        </g>
    </g>
</svg>