<?xml version="1.0" encoding="UTF-8"?>
<svg width="46px" height="48px" viewBox="0 0 46 48" version="1.1" xmlns="http://www.w3.org/2000/svg" xmlns:xlink="http://www.w3.org/1999/xlink">
    <!-- Generator: Sketch 52.5 (67469) - http://www.bohemiancoding.com/sketch -->
    <title>material_support</title>
    <desc>Created with Sketch.</desc>
    <g id="Templates" stroke="none" stroke-width="1" fill="none" fill-rule="evenodd">
        <g id="Homepage-1" transform="translate(-1417.000000, -1310.000000)" fill="#5558DB">
            <g id="Features/1/White" transform="translate(0.000000, 1160.000000)">
                <g id="feature-3" transform="translate(1215.000000, 150.000000)">
                    <path d="M224.174644,0.015253137 C223.486222,-0.012602463 222.789727,-0.00177198298 222.084595,0.043378017 C212.363779,0.668875617 204.890967,8.66559738 204.087473,18.1652531 L204.054373,18.1230655 L202.016338,42.812129 C201.786338,45.608129 204.014047,48.0011906 206.844258,48.0011906 L228.217613,48.0011906 C229.554034,48.0011906 230.638666,46.9259906 230.638666,45.6011906 C230.638666,44.2763906 229.554034,43.2011906 228.217613,43.2011906 L223.375508,43.2011906 C215.352139,43.2011906 208.849192,36.7547906 208.849192,28.8011906 L208.849192,26.4011906 C208.849192,23.7491906 211.016034,21.6011906 213.691297,21.6011906 L233.059718,21.6011906 C235.734981,21.6011906 237.901824,23.7491906 237.901824,26.4011906 L237.901824,33.6011906 L228.004824,33.6011906 C227.492448,32.1645695 226.123165,31.203329 224.586034,31.2011906 C223.622879,31.2011906 222.699173,31.5804752 222.01812,32.2556062 C221.337067,32.9307371 220.954455,33.8464112 220.954455,34.8011906 C220.957002,36.6875242 222.427963,38.2520414 224.32596,38.387129 C224.412334,38.3964383 224.499151,38.4011323 224.586034,38.4011906 L240.322876,38.4011906 L242.743929,38.4011906 C245.407087,38.4011906 247.586034,36.2411906 247.586034,33.6011906 L247.586034,28.8011906 C247.586034,26.1611906 245.407087,24.0011906 242.743929,24.0011906 L242.743929,19.2011906 C242.743929,8.86244058 234.500971,0.433085217 224.174644,0.015253137 Z" id="material_support"></path>
                </g>
            </g>
        </g>
    </g>
</svg>